<svg width="564" height="499" viewBox="0 0 564 499" fill="none" xmlns="http://www.w3.org/2000/svg">
<path d="M143.624 210.195C137.937 206.912 135.954 199.612 139.637 194.176C151.606 176.508 166.902 161.289 184.708 149.392C205.815 135.288 229.884 126.23 255.052 122.916C280.221 119.603 305.814 122.123 329.853 130.283C353.891 138.443 375.73 152.024 393.681 169.974C411.631 187.924 425.211 209.763 433.371 233.802C441.531 257.84 444.052 283.434 440.739 308.602C437.425 333.771 428.366 357.84 414.263 378.947C402.365 396.753 387.147 412.049 369.479 424.018C364.043 427.701 356.743 425.717 353.46 420.031C350.176 414.344 352.159 407.113 357.55 403.364C372.081 393.263 384.62 380.508 394.491 365.736C406.568 347.661 414.325 327.051 417.163 305.498C420 283.946 417.842 262.03 410.854 241.445C403.867 220.861 392.237 202.16 376.866 186.788C361.495 171.417 342.794 159.788 322.209 152.8C301.625 145.813 279.708 143.654 258.156 146.492C236.604 149.329 215.993 157.087 197.919 169.164C183.146 179.034 170.392 191.574 160.29 206.104C156.542 211.496 149.311 213.478 143.624 210.195Z" fill="#00ADB5" fill-opacity="0.1"/>
<path d="M175.557 229.209C171.228 226.709 169.718 221.152 172.522 217.013C181.634 203.562 193.279 191.976 206.835 182.918C222.905 172.18 241.23 165.284 260.391 162.761C279.553 160.238 299.038 162.157 317.339 168.37C335.64 174.582 352.267 184.921 365.933 198.588C379.599 212.254 389.938 228.881 396.151 247.182C402.363 265.483 404.282 284.968 401.759 304.129C399.237 323.291 392.34 341.615 381.603 357.685C372.545 371.241 360.958 382.886 347.507 391.999C343.368 394.803 337.811 393.293 335.311 388.963C332.812 384.634 334.321 379.128 338.426 376.275C349.488 368.584 359.035 358.874 366.55 347.627C375.744 333.866 381.65 318.175 383.81 301.766C385.971 285.358 384.327 268.673 379.007 253.001C373.688 237.329 364.834 223.092 353.131 211.389C341.429 199.686 327.191 190.833 311.519 185.513C295.848 180.193 279.162 178.55 262.754 180.71C246.346 182.87 230.654 188.776 216.893 197.971C205.647 205.485 195.936 215.032 188.246 226.095C185.392 230.199 179.887 231.709 175.557 229.209Z" fill="#00ADB5" fill-opacity="0.1"/>
<path d="M204.106 242.805C200.962 240.989 199.865 236.954 201.901 233.948C208.519 224.18 216.975 215.766 226.82 209.188C238.489 201.391 251.796 196.383 265.711 194.551C279.626 192.719 293.776 194.112 307.066 198.624C320.356 203.135 332.43 210.643 342.355 220.568C352.279 230.492 359.787 242.566 364.299 255.856C368.81 269.146 370.204 283.296 368.372 297.211C366.54 311.126 361.531 324.433 353.734 336.103C347.156 345.947 338.742 354.404 328.974 361.021C325.969 363.057 321.933 361.961 320.118 358.817C318.303 355.673 319.399 351.675 322.379 349.602C330.413 344.017 337.346 336.966 342.803 328.799C349.48 318.806 353.769 307.411 355.337 295.495C356.906 283.58 355.713 271.463 351.849 260.082C347.986 248.702 341.557 238.362 333.058 229.864C324.56 221.366 314.221 214.936 302.84 211.073C291.46 207.21 279.343 206.016 267.427 207.585C255.512 209.154 244.117 213.443 234.124 220.12C225.957 225.577 218.905 232.51 213.32 240.543C211.248 243.524 207.25 244.62 204.106 242.805Z" fill="#00ADB5" fill-opacity="0.1"/>
<circle cx="277" cy="287" r="56" stroke="#00ADB5" stroke-opacity="0.1" stroke-width="14"/>
</svg>
