<svg width="324" height="296" viewBox="0 0 324 296" fill="none" xmlns="http://www.w3.org/2000/svg">
<g style="mix-blend-mode:lighten">
<path d="M208.5 302C272.289 302 324 250.289 324 186.5C324 122.711 272.289 71 208.5 71C144.711 71 93 122.711 93 186.5C93 250.289 144.711 302 208.5 302Z" fill="url(#paint0_linear)"/>
</g>
<g style="mix-blend-mode:overlay">
<path d="M115.5 231C179.289 231 231 179.289 231 115.5C231 51.7111 179.289 0 115.5 0C51.7111 0 0 51.7111 0 115.5C0 179.289 51.7111 231 115.5 231Z" fill="url(#paint1_linear)"/>
</g>
<defs>
<linearGradient id="paint0_linear" x1="330.201" y1="502.768" x2="208.5" y2="49.2953" gradientUnits="userSpaceOnUse">
<stop offset="0.467804" stop-color="#30BCC3" stop-opacity="0.122"/>
<stop offset="1" stop-color="#30BCC3" stop-opacity="0"/>
</linearGradient>
<linearGradient id="paint1_linear" x1="237.201" y1="431.768" x2="-183.5" y2="-140" gradientUnits="userSpaceOnUse">
<stop offset="0.211027" stop-color="#30BCC3" stop-opacity="0.122"/>
<stop offset="1" stop-color="#30BCC3" stop-opacity="0"/>
</linearGradient>
</defs>
</svg>
