<svg width="228" height="144" viewBox="0 0 228 144" fill="none" xmlns="http://www.w3.org/2000/svg">
<g opacity="0.2">
<path d="M24.5001 42.2511C30.4377 42.2511 35.2512 37.4376 35.2512 31.5C35.2512 25.5623 30.4377 20.7489 24.5001 20.7489C18.5624 20.7489 13.749 25.5623 13.749 31.5C13.749 37.4376 18.5624 42.2511 24.5001 42.2511Z" fill="#47C4CA"/>
<path d="M67.5001 42.2511C73.4377 42.2511 78.2511 37.4376 78.2511 31.5C78.2511 25.5623 73.4377 20.7489 67.5001 20.7489C61.5624 20.7489 56.749 25.5623 56.749 31.5C56.749 37.4376 61.5624 42.2511 67.5001 42.2511Z" fill="#5F6369"/>
<path d="M110.5 42.2511C116.438 42.2511 121.251 37.4376 121.251 31.5C121.251 25.5623 116.438 20.7489 110.5 20.7489C104.562 20.7489 99.749 25.5623 99.749 31.5C99.749 37.4376 104.562 42.2511 110.5 42.2511Z" fill="#A1E1E4"/>
<path d="M153.5 42.2511C159.438 42.2511 164.251 37.4376 164.251 31.5C164.251 25.5623 159.438 20.7489 153.5 20.7489C147.562 20.7489 142.749 25.5623 142.749 31.5C142.749 37.4376 147.562 42.2511 153.5 42.2511Z" fill="#EBEBEC"/>
<path d="M196.5 42.2511C202.438 42.2511 207.251 37.4376 207.251 31.5C207.251 25.5623 202.438 20.7489 196.5 20.7489C190.562 20.7489 185.749 25.5623 185.749 31.5C185.749 37.4376 190.562 42.2511 196.5 42.2511Z" fill="#30BCC3"/>
<path d="M24.5001 85.251C30.4377 85.251 35.2512 80.4376 35.2512 74.5C35.2512 68.5623 30.4377 63.7489 24.5001 63.7489C18.5624 63.7489 13.749 68.5623 13.749 74.5C13.749 80.4376 18.5624 85.251 24.5001 85.251Z" fill="#FEFEFE"/>
<path d="M67.5001 85.251C73.4377 85.251 78.2511 80.4376 78.2511 74.5C78.2511 68.5623 73.4377 63.7489 67.5001 63.7489C61.5624 63.7489 56.749 68.5623 56.749 74.5C56.749 80.4376 61.5624 85.251 67.5001 85.251Z" fill="#78D4D8"/>
<path d="M110.5 85.251C116.438 85.251 121.251 80.4376 121.251 74.5C121.251 68.5623 116.438 63.7489 110.5 63.7489C104.562 63.7489 99.749 68.5623 99.749 74.5C99.749 80.4376 104.562 85.251 110.5 85.251Z" fill="#13B3BA"/>
<path d="M153.5 85.251C159.438 85.251 164.251 80.4376 164.251 74.5C164.251 68.5623 159.438 63.7489 153.5 63.7489C147.562 63.7489 142.749 68.5623 142.749 74.5C142.749 80.4376 147.562 85.251 153.5 85.251Z" fill="#62CCD1"/>
<path d="M196.5 85.251C202.438 85.251 207.251 80.4376 207.251 74.5C207.251 68.5623 202.438 63.7489 196.5 63.7489C190.562 63.7489 185.749 68.5623 185.749 74.5C185.749 80.4376 190.562 85.251 196.5 85.251Z" fill="#F0FAFB"/>
<path d="M24.5001 128.251C30.4377 128.251 35.2512 123.438 35.2512 117.5C35.2512 111.562 30.4377 106.749 24.5001 106.749C18.5624 106.749 13.749 111.562 13.749 117.5C13.749 123.438 18.5624 128.251 24.5001 128.251Z" fill="#BBBCBF"/>
<path d="M67.5001 128.251C73.4377 128.251 78.2511 123.438 78.2511 117.5C78.2511 111.562 73.4377 106.749 67.5001 106.749C61.5624 106.749 56.749 111.562 56.749 117.5C56.749 123.438 61.5624 128.251 67.5001 128.251Z" fill="#85D8DC"/>
<path d="M110.5 128.251C116.438 128.251 121.251 123.438 121.251 117.5C121.251 111.562 116.438 106.749 110.5 106.749C104.562 106.749 99.749 111.562 99.749 117.5C99.749 123.438 104.562 128.251 110.5 128.251Z" fill="#434850"/>
<path d="M153.5 128.251C159.438 128.251 164.251 123.438 164.251 117.5C164.251 111.562 159.438 106.749 153.5 106.749C147.562 106.749 142.749 111.562 142.749 117.5C142.749 123.438 147.562 128.251 153.5 128.251Z" fill="#3F434B"/>
<path d="M196.5 128.251C202.438 128.251 207.251 123.438 207.251 117.5C207.251 111.562 202.438 106.749 196.5 106.749C190.562 106.749 185.749 111.562 185.749 117.5C185.749 123.438 190.562 128.251 196.5 128.251Z" fill="#2CBBC2"/>
<g style="mix-blend-mode:color-burn">
<path d="M-8.49989 32.2511C-2.56223 32.2511 2.25119 27.4376 2.25119 21.5C2.25119 15.5623 -2.56223 10.7489 -8.49989 10.7489C-14.4376 10.7489 -19.251 15.5623 -19.251 21.5C-19.251 27.4376 -14.4376 32.2511 -8.49989 32.2511Z" fill="#595D64"/>
<path d="M34.5001 32.2511C40.4377 32.2511 45.2512 27.4376 45.2512 21.5C45.2512 15.5623 40.4377 10.7489 34.5001 10.7489C28.5624 10.7489 23.749 15.5623 23.749 21.5C23.749 27.4376 28.5624 32.2511 34.5001 32.2511Z" fill="#47C4CA"/>
<path d="M77.5001 32.2511C83.4377 32.2511 88.2511 27.4376 88.2511 21.5C88.2511 15.5623 83.4377 10.7489 77.5001 10.7489C71.5624 10.7489 66.749 15.5623 66.749 21.5C66.749 27.4376 71.5624 32.2511 77.5001 32.2511Z" fill="#5F6369"/>
<path d="M120.5 32.2511C126.438 32.2511 131.251 27.4376 131.251 21.5C131.251 15.5623 126.438 10.7489 120.5 10.7489C114.562 10.7489 109.749 15.5623 109.749 21.5C109.749 27.4376 114.562 32.2511 120.5 32.2511Z" fill="#A1E1E4"/>
<path d="M163.5 32.2511C169.438 32.2511 174.251 27.4376 174.251 21.5C174.251 15.5623 169.438 10.7489 163.5 10.7489C157.562 10.7489 152.749 15.5623 152.749 21.5C152.749 27.4376 157.562 32.2511 163.5 32.2511Z" fill="#EBEBEC"/>
<path d="M206.5 32.2511C212.438 32.2511 217.251 27.4376 217.251 21.5C217.251 15.5623 212.438 10.7489 206.5 10.7489C200.562 10.7489 195.749 15.5623 195.749 21.5C195.749 27.4376 200.562 32.2511 206.5 32.2511Z" fill="#30BCC3"/>
<path d="M-8.49989 75.251C-2.56223 75.251 2.25119 70.4376 2.25119 64.5C2.25119 58.5623 -2.56223 53.7489 -8.49989 53.7489C-14.4376 53.7489 -19.251 58.5623 -19.251 64.5C-19.251 70.4376 -14.4376 75.251 -8.49989 75.251Z" fill="#1CB6BD"/>
<path d="M34.5001 75.251C40.4377 75.251 45.2512 70.4376 45.2512 64.5C45.2512 58.5623 40.4377 53.7489 34.5001 53.7489C28.5624 53.7489 23.749 58.5623 23.749 64.5C23.749 70.4376 28.5624 75.251 34.5001 75.251Z" fill="#FEFEFE"/>
<path d="M77.5001 75.251C83.4377 75.251 88.2511 70.4376 88.2511 64.5C88.2511 58.5623 83.4377 53.7489 77.5001 53.7489C71.5624 53.7489 66.749 58.5623 66.749 64.5C66.749 70.4376 71.5624 75.251 77.5001 75.251Z" fill="#78D4D8"/>
<path d="M120.5 75.251C126.438 75.251 131.251 70.4376 131.251 64.5C131.251 58.5623 126.438 53.7489 120.5 53.7489C114.562 53.7489 109.749 58.5623 109.749 64.5C109.749 70.4376 114.562 75.251 120.5 75.251Z" fill="#13B3BA"/>
<path d="M163.5 75.251C169.438 75.251 174.251 70.4376 174.251 64.5C174.251 58.5623 169.438 53.7489 163.5 53.7489C157.562 53.7489 152.749 58.5623 152.749 64.5C152.749 70.4376 157.562 75.251 163.5 75.251Z" fill="#62CCD1"/>
<path d="M206.5 75.251C212.438 75.251 217.251 70.4376 217.251 64.5C217.251 58.5623 212.438 53.7489 206.5 53.7489C200.562 53.7489 195.749 58.5623 195.749 64.5C195.749 70.4376 200.562 75.251 206.5 75.251Z" fill="#F0FAFB"/>
<path d="M-8.49989 118.251C-2.56223 118.251 2.25119 113.438 2.25119 107.5C2.25119 101.562 -2.56223 96.749 -8.49989 96.749C-14.4376 96.749 -19.251 101.562 -19.251 107.5C-19.251 113.438 -14.4376 118.251 -8.49989 118.251Z" fill="#71D1D6"/>
<path d="M34.5001 118.251C40.4377 118.251 45.2512 113.438 45.2512 107.5C45.2512 101.562 40.4377 96.749 34.5001 96.749C28.5624 96.749 23.749 101.562 23.749 107.5C23.749 113.438 28.5624 118.251 34.5001 118.251Z" fill="#BBBCBF"/>
<path d="M77.5001 118.251C83.4377 118.251 88.2511 113.438 88.2511 107.5C88.2511 101.562 83.4377 96.749 77.5001 96.749C71.5624 96.749 66.749 101.562 66.749 107.5C66.749 113.438 71.5624 118.251 77.5001 118.251Z" fill="#85D8DC"/>
<path d="M120.5 118.251C126.438 118.251 131.251 113.438 131.251 107.5C131.251 101.562 126.438 96.749 120.5 96.749C114.562 96.749 109.749 101.562 109.749 107.5C109.749 113.438 114.562 118.251 120.5 118.251Z" fill="#434850"/>
<path d="M163.5 118.251C169.438 118.251 174.251 113.438 174.251 107.5C174.251 101.562 169.438 96.749 163.5 96.749C157.562 96.749 152.749 101.562 152.749 107.5C152.749 113.438 157.562 118.251 163.5 118.251Z" fill="#3F434B"/>
<path d="M206.5 118.251C212.438 118.251 217.251 113.438 217.251 107.5C217.251 101.562 212.438 96.749 206.5 96.749C200.562 96.749 195.749 101.562 195.749 107.5C195.749 113.438 200.562 118.251 206.5 118.251Z" fill="#2CBBC2"/>
<path d="M-8.49989 161.251C-2.56223 161.251 2.25119 156.438 2.25119 150.5C2.25119 144.562 -2.56223 139.749 -8.49989 139.749C-14.4376 139.749 -19.251 144.562 -19.251 150.5C-19.251 156.438 -14.4376 161.251 -8.49989 161.251Z" fill="#3CC0C6"/>
<path d="M77.5001 161.251C83.4377 161.251 88.2511 156.438 88.2511 150.5C88.2511 144.562 83.4377 139.749 77.5001 139.749C71.5624 139.749 66.749 144.562 66.749 150.5C66.749 156.438 71.5624 161.251 77.5001 161.251Z" fill="#54C8CD"/>
<path d="M120.5 161.251C126.438 161.251 131.251 156.438 131.251 150.5C131.251 144.562 126.438 139.749 120.5 139.749C114.562 139.749 109.749 144.562 109.749 150.5C109.749 156.438 114.562 161.251 120.5 161.251Z" fill="#8AD9DD"/>
<path d="M163.5 161.251C169.438 161.251 174.251 156.438 174.251 150.5C174.251 144.562 169.438 139.749 163.5 139.749C157.562 139.749 152.749 144.562 152.749 150.5C152.749 156.438 157.562 161.251 163.5 161.251Z" fill="#7C7F84"/>
<path d="M206.5 161.251C212.438 161.251 217.251 156.438 217.251 150.5C217.251 144.562 212.438 139.749 206.5 139.749C200.562 139.749 195.749 144.562 195.749 150.5C195.749 156.438 200.562 161.251 206.5 161.251Z" fill="#C2C4C6"/>
</g>
</g>
</svg>
