<svg width="177" height="205" viewBox="0 0 177 205" fill="none" xmlns="http://www.w3.org/2000/svg">
<path d="M20 205V18.5H176.5" stroke="#222831" stroke-width="12" stroke-linejoin="bevel"/>
<rect x="35" y="34" width="142" height="171" fill="#222831"/>
<rect opacity="0.4" x="46" y="45" width="131" height="161" fill="url(#paint0_linear)"/>
<path d="M41 22V36" stroke="#222831" stroke-width="12"/>
<path d="M61 22V36" stroke="#222831" stroke-width="12"/>
<path d="M81 22V36" stroke="#222831" stroke-width="12"/>
<path d="M101 22V36" stroke="#222831" stroke-width="12"/>
<path d="M121 22V36" stroke="#222831" stroke-width="12"/>
<path d="M141 22V36" stroke="#222831" stroke-width="12"/>
<path d="M161 22V36" stroke="#222831" stroke-width="12"/>
<path d="M181 22V36" stroke="#222831" stroke-width="12"/>
<path d="M20.5 40H38.5M20.5 59H38.5M20.5 78H38.5M20.5 97H38.5M20.5 116H38.5M20.5 135H38.5M20.5 154H38.5M20.5 173H38.5M20.5 192H38.5" stroke="#222831" stroke-width="12"/>
<path d="M24 0V13" stroke="#00ADB5" stroke-width="8"/>
<path d="M45.8572 0V13" stroke="#00ADB5" stroke-width="8"/>
<path d="M67.7144 0V13" stroke="#00ADB5" stroke-width="8"/>
<path d="M89.5714 0V13" stroke="#00ADB5" stroke-width="8"/>
<path d="M111.429 0V13" stroke="#00ADB5" stroke-width="8"/>
<path d="M133.286 0V13" stroke="#00ADB5" stroke-width="8"/>
<path d="M155.143 0V13" stroke="#00ADB5" stroke-width="8"/>
<path d="M177 0V13" stroke="#00ADB5" stroke-width="8"/>
<path d="M0 200H14" stroke="#00ADB5" stroke-width="8"/>
<path d="M0 174.714H14" stroke="#00ADB5" stroke-width="8"/>
<path d="M0 149.429H14" stroke="#00ADB5" stroke-width="8"/>
<path d="M0 124.143H14" stroke="#00ADB5" stroke-width="8"/>
<path d="M0 98.8572H14" stroke="#00ADB5" stroke-width="8"/>
<path d="M0 73.5714H14" stroke="#00ADB5" stroke-width="8"/>
<path d="M0 48.2858H14" stroke="#00ADB5" stroke-width="8"/>
<path d="M0 23H14" stroke="#00ADB5" stroke-width="8"/>
<defs>
<linearGradient id="paint0_linear" x1="46" y1="45" x2="177" y2="206" gradientUnits="userSpaceOnUse">
<stop stop-color="#00ADB5"/>
<stop offset="1" stop-color="#00ADB5" stop-opacity="0"/>
</linearGradient>
</defs>
</svg>
