<svg width="227" height="233" viewBox="0 0 227 233" fill="none" xmlns="http://www.w3.org/2000/svg">
<g opacity="0.6">
<g opacity="0.4">
<g style="mix-blend-mode:color-burn">
<path d="M31.5 39.2511C37.4376 39.2511 42.2511 34.4376 42.2511 28.5C42.2511 22.5623 37.4376 17.7489 31.5 17.7489C25.5623 17.7489 20.7489 22.5623 20.7489 28.5C20.7489 34.4376 25.5623 39.2511 31.5 39.2511Z" fill="#2BBBC2"/>
<path d="M74.5 39.2511C80.4376 39.2511 85.251 34.4376 85.251 28.5C85.251 22.5623 80.4376 17.7489 74.5 17.7489C68.5623 17.7489 63.7489 22.5623 63.7489 28.5C63.7489 34.4376 68.5623 39.2511 74.5 39.2511Z" fill="#CEEFF1"/>
<path d="M117.5 39.2511C123.438 39.2511 128.251 34.4376 128.251 28.5C128.251 22.5623 123.438 17.7489 117.5 17.7489C111.562 17.7489 106.749 22.5623 106.749 28.5C106.749 34.4376 111.562 39.2511 117.5 39.2511Z" fill="#8E9095"/>
<path d="M160.5 39.2511C166.438 39.2511 171.251 34.4376 171.251 28.5C171.251 22.5623 166.438 17.7489 160.5 17.7489C154.562 17.7489 149.749 22.5623 149.749 28.5C149.749 34.4376 154.562 39.2511 160.5 39.2511Z" fill="#3CC0C6"/>
<path d="M31.5 82.251C37.4376 82.251 42.2511 77.4376 42.2511 71.5C42.2511 65.5623 37.4376 60.7489 31.5 60.7489C25.5623 60.7489 20.7489 65.5623 20.7489 71.5C20.7489 77.4376 25.5623 82.251 31.5 82.251Z" fill="#C7C9CB"/>
<path d="M74.5 82.251C80.4376 82.251 85.251 77.4376 85.251 71.5C85.251 65.5623 80.4376 60.7489 74.5 60.7489C68.5623 60.7489 63.7489 65.5623 63.7489 71.5C63.7489 77.4376 68.5623 82.251 74.5 82.251Z" fill="#27BAC0"/>
<path d="M117.5 82.251C123.438 82.251 128.251 77.4376 128.251 71.5C128.251 65.5623 123.438 60.7489 117.5 60.7489C111.562 60.7489 106.749 65.5623 106.749 71.5C106.749 77.4376 111.562 82.251 117.5 82.251Z" fill="#F1F2F2"/>
<path d="M160.5 82.251C166.438 82.251 171.251 77.4376 171.251 71.5C171.251 65.5623 166.438 60.7489 160.5 60.7489C154.562 60.7489 149.749 65.5623 149.749 71.5C149.749 77.4376 154.562 82.251 160.5 82.251Z" fill="#E2E2E4"/>
<path d="M203.5 82.251C209.438 82.251 214.251 77.4376 214.251 71.5C214.251 65.5623 209.438 60.7489 203.5 60.7489C197.562 60.7489 192.749 65.5623 192.749 71.5C192.749 77.4376 197.562 82.251 203.5 82.251Z" fill="#D8D9DB"/>
<path d="M31.5 125.251C37.4376 125.251 42.2511 120.438 42.2511 114.5C42.2511 108.562 37.4376 103.749 31.5 103.749C25.5623 103.749 20.7489 108.562 20.7489 114.5C20.7489 120.438 25.5623 125.251 31.5 125.251Z" fill="#8BDADD"/>
<path d="M74.5 125.251C80.4376 125.251 85.251 120.438 85.251 114.5C85.251 108.562 80.4376 103.749 74.5 103.749C68.5623 103.749 63.7489 108.562 63.7489 114.5C63.7489 120.438 68.5623 125.251 74.5 125.251Z" fill="#A6A8AC"/>
<path d="M117.5 125.251C123.438 125.251 128.251 120.438 128.251 114.5C128.251 108.562 123.438 103.749 117.5 103.749C111.562 103.749 106.749 108.562 106.749 114.5C106.749 120.438 111.562 125.251 117.5 125.251Z" fill="#85898D"/>
<path d="M160.5 125.251C166.438 125.251 171.251 120.438 171.251 114.5C171.251 108.562 166.438 103.749 160.5 103.749C154.562 103.749 149.749 108.562 149.749 114.5C149.749 120.438 154.562 125.251 160.5 125.251Z" fill="#BAE9EB"/>
<path d="M203.5 125.251C209.438 125.251 214.251 120.438 214.251 114.5C214.251 108.562 209.438 103.749 203.5 103.749C197.562 103.749 192.749 108.562 192.749 114.5C192.749 120.438 197.562 125.251 203.5 125.251Z" fill="#C3ECED"/>
<path d="M31.5 168.251C37.4376 168.251 42.2511 163.438 42.2511 157.5C42.2511 151.562 37.4376 146.749 31.5 146.749C25.5623 146.749 20.7489 151.562 20.7489 157.5C20.7489 163.438 25.5623 168.251 31.5 168.251Z" fill="#C3C5C7"/>
<path d="M74.5 168.251C80.4376 168.251 85.251 163.438 85.251 157.5C85.251 151.562 80.4376 146.749 74.5 146.749C68.5623 146.749 63.7489 151.562 63.7489 157.5C63.7489 163.438 68.5623 168.251 74.5 168.251Z" fill="#E7E8E9"/>
<path d="M117.5 168.251C123.438 168.251 128.251 163.438 128.251 157.5C128.251 151.562 123.438 146.749 117.5 146.749C111.562 146.749 106.749 151.562 106.749 157.5C106.749 163.438 111.562 168.251 117.5 168.251Z" fill="#32BDC4"/>
<path d="M160.5 168.251C166.438 168.251 171.251 163.438 171.251 157.5C171.251 151.562 166.438 146.749 160.5 146.749C154.562 146.749 149.749 151.562 149.749 157.5C149.749 163.438 154.562 168.251 160.5 168.251Z" fill="#D4F1F3"/>
<path d="M203.5 168.251C209.438 168.251 214.251 163.438 214.251 157.5C214.251 151.562 209.438 146.749 203.5 146.749C197.562 146.749 192.749 151.562 192.749 157.5C192.749 163.438 197.562 168.251 203.5 168.251Z" fill="#DCF4F5"/>
<path d="M31.5 211.251C37.4376 211.251 42.2511 206.438 42.2511 200.5C42.2511 194.562 37.4376 189.749 31.5 189.749C25.5623 189.749 20.7489 194.562 20.7489 200.5C20.7489 206.438 25.5623 211.251 31.5 211.251Z" fill="#C9EEEF"/>
<path d="M74.5 211.251C80.4376 211.251 85.251 206.438 85.251 200.5C85.251 194.562 80.4376 189.749 74.5 189.749C68.5623 189.749 63.7489 194.562 63.7489 200.5C63.7489 206.438 68.5623 211.251 74.5 211.251Z" fill="#898C90"/>
<path d="M117.5 211.251C123.438 211.251 128.251 206.438 128.251 200.5C128.251 194.562 123.438 189.749 117.5 189.749C111.562 189.749 106.749 194.562 106.749 200.5C106.749 206.438 111.562 211.251 117.5 211.251Z" fill="#64686F"/>
<path d="M160.5 211.251C166.438 211.251 171.251 206.438 171.251 200.5C171.251 194.562 166.438 189.749 160.5 189.749C154.562 189.749 149.749 194.562 149.749 200.5C149.749 206.438 154.562 211.251 160.5 211.251Z" fill="#D3F1F2"/>
<path d="M203.5 211.251C209.438 211.251 214.251 206.438 214.251 200.5C214.251 194.562 209.438 189.749 203.5 189.749C197.562 189.749 192.749 194.562 192.749 200.5C192.749 206.438 197.562 211.251 203.5 211.251Z" fill="#18B5BC"/>
</g>
<path d="M21.5 7.25104C27.4376 7.25104 32.2511 2.43762 32.2511 -3.50003C32.2511 -9.43768 27.4376 -14.2511 21.5 -14.2511C15.5623 -14.2511 10.7489 -9.43768 10.7489 -3.50003C10.7489 2.43762 15.5623 7.25104 21.5 7.25104Z" fill="#C2ECED"/>
<path d="M64.5 7.25104C70.4376 7.25104 75.251 2.43762 75.251 -3.50003C75.251 -9.43768 70.4376 -14.2511 64.5 -14.2511C58.5623 -14.2511 53.7489 -9.43768 53.7489 -3.50003C53.7489 2.43762 58.5623 7.25104 64.5 7.25104Z" fill="#B1B3B7"/>
<path d="M107.5 7.25104C113.438 7.25104 118.251 2.43762 118.251 -3.50003C118.251 -9.43768 113.438 -14.2511 107.5 -14.2511C101.562 -14.2511 96.7489 -9.43768 96.7489 -3.50003C96.7489 2.43762 101.562 7.25104 107.5 7.25104Z" fill="#87D8DC"/>
<path d="M150.5 7.25104C156.438 7.25104 161.251 2.43762 161.251 -3.50003C161.251 -9.43768 156.438 -14.2511 150.5 -14.2511C144.562 -14.2511 139.749 -9.43768 139.749 -3.50003C139.749 2.43762 144.562 7.25104 150.5 7.25104Z" fill="#71D1D6"/>
<path d="M193.5 7.25104C199.438 7.25104 204.251 2.43762 204.251 -3.50003C204.251 -9.43768 199.438 -14.2511 193.5 -14.2511C187.562 -14.2511 182.749 -9.43768 182.749 -3.50003C182.749 2.43762 187.562 7.25104 193.5 7.25104Z" fill="#BBBCBF"/>
<path d="M236.5 7.25104C242.438 7.25104 247.251 2.43762 247.251 -3.50003C247.251 -9.43768 242.438 -14.2511 236.5 -14.2511C230.562 -14.2511 225.749 -9.43768 225.749 -3.50003C225.749 2.43762 230.562 7.25104 236.5 7.25104Z" fill="#85D8DC"/>
<path d="M21.5 50.2511C27.4376 50.2511 32.2511 45.4376 32.2511 39.5C32.2511 33.5623 27.4376 28.7489 21.5 28.7489C15.5623 28.7489 10.7489 33.5623 10.7489 39.5C10.7489 45.4376 15.5623 50.2511 21.5 50.2511Z" fill="#2BBBC2"/>
<path d="M64.5 50.2511C70.4376 50.2511 75.251 45.4376 75.251 39.5C75.251 33.5623 70.4376 28.7489 64.5 28.7489C58.5623 28.7489 53.7489 33.5623 53.7489 39.5C53.7489 45.4376 58.5623 50.2511 64.5 50.2511Z" fill="#CEEFF1"/>
<path d="M107.5 50.2511C113.438 50.2511 118.251 45.4376 118.251 39.5C118.251 33.5623 113.438 28.7489 107.5 28.7489C101.562 28.7489 96.7489 33.5623 96.7489 39.5C96.7489 45.4376 101.562 50.2511 107.5 50.2511Z" fill="#8E9095"/>
<path d="M150.5 50.2511C156.438 50.2511 161.251 45.4376 161.251 39.5C161.251 33.5623 156.438 28.7489 150.5 28.7489C144.562 28.7489 139.749 33.5623 139.749 39.5C139.749 45.4376 144.562 50.2511 150.5 50.2511Z" fill="#3CC0C6"/>
<path d="M236.5 50.2511C242.438 50.2511 247.251 45.4376 247.251 39.5C247.251 33.5623 242.438 28.7489 236.5 28.7489C230.562 28.7489 225.749 33.5623 225.749 39.5C225.749 45.4376 230.562 50.2511 236.5 50.2511Z" fill="#54C8CD"/>
<path d="M21.5 93.251C27.4376 93.251 32.2511 88.4376 32.2511 82.5C32.2511 76.5623 27.4376 71.7489 21.5 71.7489C15.5623 71.7489 10.7489 76.5623 10.7489 82.5C10.7489 88.4376 15.5623 93.251 21.5 93.251Z" fill="#C7C9CB"/>
<path d="M64.5 93.251C70.4376 93.251 75.251 88.4376 75.251 82.5C75.251 76.5623 70.4376 71.7489 64.5 71.7489C58.5623 71.7489 53.7489 76.5623 53.7489 82.5C53.7489 88.4376 58.5623 93.251 64.5 93.251Z" fill="#27BAC0"/>
<path d="M107.5 93.251C113.438 93.251 118.251 88.4376 118.251 82.5C118.251 76.5623 113.438 71.7489 107.5 71.7489C101.562 71.7489 96.7489 76.5623 96.7489 82.5C96.7489 88.4376 101.562 93.251 107.5 93.251Z" fill="#F1F2F2"/>
<path d="M150.5 93.251C156.438 93.251 161.251 88.4376 161.251 82.5C161.251 76.5623 156.438 71.7489 150.5 71.7489C144.562 71.7489 139.749 76.5623 139.749 82.5C139.749 88.4376 144.562 93.251 150.5 93.251Z" fill="#E2E2E4"/>
<path d="M193.5 93.251C199.438 93.251 204.251 88.4376 204.251 82.5C204.251 76.5623 199.438 71.7489 193.5 71.7489C187.562 71.7489 182.749 76.5623 182.749 82.5C182.749 88.4376 187.562 93.251 193.5 93.251Z" fill="#D8D9DB"/>
<path d="M236.5 93.251C242.438 93.251 247.251 88.4376 247.251 82.5C247.251 76.5623 242.438 71.7489 236.5 71.7489C230.562 71.7489 225.749 76.5623 225.749 82.5C225.749 88.4376 230.562 93.251 236.5 93.251Z" fill="#AAACAF"/>
<path d="M21.5 136.251C27.4376 136.251 32.2511 131.438 32.2511 125.5C32.2511 119.562 27.4376 114.749 21.5 114.749C15.5623 114.749 10.7489 119.562 10.7489 125.5C10.7489 131.438 15.5623 136.251 21.5 136.251Z" fill="#8BDADD"/>
<path d="M64.5 136.251C70.4376 136.251 75.251 131.438 75.251 125.5C75.251 119.562 70.4376 114.749 64.5 114.749C58.5623 114.749 53.7489 119.562 53.7489 125.5C53.7489 131.438 58.5623 136.251 64.5 136.251Z" fill="#A6A8AC"/>
<path d="M107.5 136.251C113.438 136.251 118.251 131.438 118.251 125.5C118.251 119.562 113.438 114.749 107.5 114.749C101.562 114.749 96.7489 119.562 96.7489 125.5C96.7489 131.438 101.562 136.251 107.5 136.251Z" fill="#85898D"/>
<path d="M150.5 136.251C156.438 136.251 161.251 131.438 161.251 125.5C161.251 119.562 156.438 114.749 150.5 114.749C144.562 114.749 139.749 119.562 139.749 125.5C139.749 131.438 144.562 136.251 150.5 136.251Z" fill="#BAE9EB"/>
<path d="M193.5 136.251C199.438 136.251 204.251 131.438 204.251 125.5C204.251 119.562 199.438 114.749 193.5 114.749C187.562 114.749 182.749 119.562 182.749 125.5C182.749 131.438 187.562 136.251 193.5 136.251Z" fill="#C3ECED"/>
<path d="M236.5 136.251C242.438 136.251 247.251 131.438 247.251 125.5C247.251 119.562 242.438 114.749 236.5 114.749C230.562 114.749 225.749 119.562 225.749 125.5C225.749 131.438 230.562 136.251 236.5 136.251Z" fill="#6F7379"/>
<path d="M21.5 179.251C27.4376 179.251 32.2511 174.438 32.2511 168.5C32.2511 162.562 27.4376 157.749 21.5 157.749C15.5623 157.749 10.7489 162.562 10.7489 168.5C10.7489 174.438 15.5623 179.251 21.5 179.251Z" fill="#C3C5C7"/>
<path d="M64.5 179.251C70.4376 179.251 75.251 174.438 75.251 168.5C75.251 162.562 70.4376 157.749 64.5 157.749C58.5623 157.749 53.7489 162.562 53.7489 168.5C53.7489 174.438 58.5623 179.251 64.5 179.251Z" fill="#E7E8E9"/>
<path d="M107.5 179.251C113.438 179.251 118.251 174.438 118.251 168.5C118.251 162.562 113.438 157.749 107.5 157.749C101.562 157.749 96.7489 162.562 96.7489 168.5C96.7489 174.438 101.562 179.251 107.5 179.251Z" fill="#32BDC4"/>
<path d="M150.5 179.251C156.438 179.251 161.251 174.438 161.251 168.5C161.251 162.562 156.438 157.749 150.5 157.749C144.562 157.749 139.749 162.562 139.749 168.5C139.749 174.438 144.562 179.251 150.5 179.251Z" fill="#D4F1F3"/>
<path d="M193.5 179.251C199.438 179.251 204.251 174.438 204.251 168.5C204.251 162.562 199.438 157.749 193.5 157.749C187.562 157.749 182.749 162.562 182.749 168.5C182.749 174.438 187.562 179.251 193.5 179.251Z" fill="#DCF4F5"/>
<path d="M236.5 179.251C242.438 179.251 247.251 174.438 247.251 168.5C247.251 162.562 242.438 157.749 236.5 157.749C230.562 157.749 225.749 162.562 225.749 168.5C225.749 174.438 230.562 179.251 236.5 179.251Z" fill="#26B9C0"/>
<path d="M21.5 222.251C27.4376 222.251 32.2511 217.438 32.2511 211.5C32.2511 205.562 27.4376 200.749 21.5 200.749C15.5623 200.749 10.7489 205.562 10.7489 211.5C10.7489 217.438 15.5623 222.251 21.5 222.251Z" fill="#C9EEEF"/>
<path d="M64.5 222.251C70.4376 222.251 75.251 217.438 75.251 211.5C75.251 205.562 70.4376 200.749 64.5 200.749C58.5623 200.749 53.7489 205.562 53.7489 211.5C53.7489 217.438 58.5623 222.251 64.5 222.251Z" fill="#898C90"/>
<path d="M107.5 222.251C113.438 222.251 118.251 217.438 118.251 211.5C118.251 205.562 113.438 200.749 107.5 200.749C101.562 200.749 96.7489 205.562 96.7489 211.5C96.7489 217.438 101.562 222.251 107.5 222.251Z" fill="#64686F"/>
<path d="M150.5 222.251C156.438 222.251 161.251 217.438 161.251 211.5C161.251 205.562 156.438 200.749 150.5 200.749C144.562 200.749 139.749 205.562 139.749 211.5C139.749 217.438 144.562 222.251 150.5 222.251Z" fill="#D3F1F2"/>
<path d="M193.5 222.251C199.438 222.251 204.251 217.438 204.251 211.5C204.251 205.562 199.438 200.749 193.5 200.749C187.562 200.749 182.749 205.562 182.749 211.5C182.749 217.438 187.562 222.251 193.5 222.251Z" fill="#18B5BC"/>
<path d="M236.5 222.251C242.438 222.251 247.251 217.438 247.251 211.5C247.251 205.562 242.438 200.749 236.5 200.749C230.562 200.749 225.749 205.562 225.749 211.5C225.749 217.438 230.562 222.251 236.5 222.251Z" fill="#484C54"/>
</g>
</g>
</svg>
