<svg width="583" height="432" viewBox="0 0 583 432" fill="none" xmlns="http://www.w3.org/2000/svg">
<g style="mix-blend-mode:color-burn" opacity="0.2">
<path d="M19.0348 60.2687C24.1315 60.2687 28.2633 55.9124 28.2633 50.5386C28.2633 45.1649 24.1315 40.8086 19.0348 40.8086C13.9381 40.8086 9.8064 45.1649 9.8064 50.5386C9.8064 55.9124 13.9381 60.2687 19.0348 60.2687Z" fill="#575C62"/>
<path d="M55.9449 60.2687C61.0416 60.2687 65.1733 55.9124 65.1733 50.5386C65.1733 45.1649 61.0416 40.8086 55.9449 40.8086C50.8481 40.8086 46.7164 45.1649 46.7164 50.5386C46.7164 55.9124 50.8481 60.2687 55.9449 60.2687Z" fill="#43474F"/>
<path d="M92.8549 60.2687C97.9516 60.2687 102.083 55.9124 102.083 50.5386C102.083 45.1649 97.9516 40.8086 92.8549 40.8086C87.7582 40.8086 83.6265 45.1649 83.6265 50.5386C83.6265 55.9124 87.7582 60.2687 92.8549 60.2687Z" fill="#ADE5E7"/>
<path d="M129.765 60.2687C134.862 60.2687 138.993 55.9124 138.993 50.5386C138.993 45.1649 134.862 40.8086 129.765 40.8086C124.668 40.8086 120.536 45.1649 120.536 50.5386C120.536 55.9124 124.668 60.2687 129.765 60.2687Z" fill="#595D64"/>
<path d="M166.675 60.2687C171.772 60.2687 175.903 55.9124 175.903 50.5386C175.903 45.1649 171.772 40.8086 166.675 40.8086C161.578 40.8086 157.447 45.1649 157.447 50.5386C157.447 55.9124 161.578 60.2687 166.675 60.2687Z" fill="#47C4CA"/>
<path d="M203.585 60.2687C208.682 60.2687 212.813 55.9124 212.813 50.5386C212.813 45.1649 208.682 40.8086 203.585 40.8086C198.488 40.8086 194.357 45.1649 194.357 50.5386C194.357 55.9124 198.488 60.2687 203.585 60.2687Z" fill="#5F6369"/>
<path d="M240.495 60.2687C245.592 60.2687 249.723 55.9124 249.723 50.5386C249.723 45.1649 245.592 40.8086 240.495 40.8086C235.398 40.8086 231.267 45.1649 231.267 50.5386C231.267 55.9124 235.398 60.2687 240.495 60.2687Z" fill="#A1E1E4"/>
<path d="M277.405 60.2687C282.502 60.2687 286.633 55.9124 286.633 50.5386C286.633 45.1649 282.502 40.8086 277.405 40.8086C272.308 40.8086 268.177 45.1649 268.177 50.5386C268.177 55.9124 272.308 60.2687 277.405 60.2687Z" fill="#EBEBEC"/>
<path d="M314.315 60.2687C319.412 60.2687 323.543 55.9124 323.543 50.5386C323.543 45.1649 319.412 40.8086 314.315 40.8086C309.218 40.8086 305.087 45.1649 305.087 50.5386C305.087 55.9124 309.218 60.2687 314.315 60.2687Z" fill="#30BCC3"/>
<path d="M19.0348 99.1851C24.1315 99.1851 28.2633 94.8288 28.2633 89.455C28.2633 84.0813 24.1315 79.725 19.0348 79.725C13.9381 79.725 9.8064 84.0813 9.8064 89.455C9.8064 94.8288 13.9381 99.1851 19.0348 99.1851Z" fill="#EDEEEE"/>
<path d="M55.9449 99.1851C61.0416 99.1851 65.1733 94.8288 65.1733 89.455C65.1733 84.0813 61.0416 79.725 55.9449 79.725C50.8481 79.725 46.7164 84.0813 46.7164 89.455C46.7164 94.8288 50.8481 99.1851 55.9449 99.1851Z" fill="#21B8BF"/>
<path d="M92.8549 99.1851C97.9516 99.1851 102.083 94.8288 102.083 89.455C102.083 84.0813 97.9516 79.725 92.8549 79.725C87.7582 79.725 83.6265 84.0813 83.6265 89.455C83.6265 94.8288 87.7582 99.1851 92.8549 99.1851Z" fill="#87D8DC"/>
<path d="M129.765 99.1851C134.862 99.1851 138.993 94.8288 138.993 89.455C138.993 84.0813 134.862 79.725 129.765 79.725C124.668 79.725 120.536 84.0813 120.536 89.455C120.536 94.8288 124.668 99.1851 129.765 99.1851Z" fill="#1CB6BD"/>
<path d="M166.675 99.1851C171.772 99.1851 175.903 94.8288 175.903 89.455C175.903 84.0813 171.772 79.725 166.675 79.725C161.578 79.725 157.447 84.0813 157.447 89.455C157.447 94.8288 161.578 99.1851 166.675 99.1851Z" fill="#FEFEFE"/>
<path d="M203.585 99.1851C208.682 99.1851 212.813 94.8288 212.813 89.455C212.813 84.0813 208.682 79.725 203.585 79.725C198.488 79.725 194.357 84.0813 194.357 89.455C194.357 94.8288 198.488 99.1851 203.585 99.1851Z" fill="#78D4D8"/>
<path d="M240.495 99.1851C245.592 99.1851 249.723 94.8288 249.723 89.455C249.723 84.0813 245.592 79.725 240.495 79.725C235.398 79.725 231.267 84.0813 231.267 89.455C231.267 94.8288 235.398 99.1851 240.495 99.1851Z" fill="#13B3BA"/>
<path d="M277.405 99.1851C282.502 99.1851 286.633 94.8288 286.633 89.455C286.633 84.0813 282.502 79.725 277.405 79.725C272.308 79.725 268.177 84.0813 268.177 89.455C268.177 94.8288 272.308 99.1851 277.405 99.1851Z" fill="#62CCD1"/>
<path d="M314.315 99.1851C319.412 99.1851 323.543 94.8288 323.543 89.455C323.543 84.0813 319.412 79.725 314.315 79.725C309.218 79.725 305.087 84.0813 305.087 89.455C305.087 94.8288 309.218 99.1851 314.315 99.1851Z" fill="#F0FAFB"/>
<path d="M19.0348 138.101C24.1315 138.101 28.2633 133.745 28.2633 128.371C28.2633 122.998 24.1315 118.641 19.0348 118.641C13.9381 118.641 9.8064 122.998 9.8064 128.371C9.8064 133.745 13.9381 138.101 19.0348 138.101Z" fill="#C2ECED"/>
<path d="M55.9449 138.101C61.0416 138.101 65.1733 133.745 65.1733 128.371C65.1733 122.998 61.0416 118.641 55.9449 118.641C50.8481 118.641 46.7164 122.998 46.7164 128.371C46.7164 133.745 50.8481 138.101 55.9449 138.101Z" fill="#B1B3B7"/>
<path d="M92.8549 138.101C97.9516 138.101 102.083 133.745 102.083 128.371C102.083 122.998 97.9516 118.641 92.8549 118.641C87.7582 118.641 83.6265 122.998 83.6265 128.371C83.6265 133.745 87.7582 138.101 92.8549 138.101Z" fill="#87D8DC"/>
<path d="M129.765 138.101C134.862 138.101 138.993 133.745 138.993 128.371C138.993 122.998 134.862 118.641 129.765 118.641C124.668 118.641 120.536 122.998 120.536 128.371C120.536 133.745 124.668 138.101 129.765 138.101Z" fill="#71D1D6"/>
<path d="M166.675 138.101C171.772 138.101 175.903 133.745 175.903 128.371C175.903 122.998 171.772 118.641 166.675 118.641C161.578 118.641 157.447 122.998 157.447 128.371C157.447 133.745 161.578 138.101 166.675 138.101Z" fill="#BBBCBF"/>
<path d="M203.585 138.101C208.682 138.101 212.813 133.745 212.813 128.371C212.813 122.998 208.682 118.641 203.585 118.641C198.488 118.641 194.357 122.998 194.357 128.371C194.357 133.745 198.488 138.101 203.585 138.101Z" fill="#85D8DC"/>
<path d="M240.495 138.101C245.592 138.101 249.723 133.745 249.723 128.371C249.723 122.998 245.592 118.641 240.495 118.641C235.398 118.641 231.267 122.998 231.267 128.371C231.267 133.745 235.398 138.101 240.495 138.101Z" fill="#434850"/>
<path d="M277.405 138.101C282.502 138.101 286.633 133.745 286.633 128.371C286.633 122.998 282.502 118.641 277.405 118.641C272.308 118.641 268.177 122.998 268.177 128.371C268.177 133.745 272.308 138.101 277.405 138.101Z" fill="#3F434B"/>
<path d="M314.315 138.101C319.412 138.101 323.543 133.745 323.543 128.371C323.543 122.998 319.412 118.641 314.315 118.641C309.218 118.641 305.087 122.998 305.087 128.371C305.087 133.745 309.218 138.101 314.315 138.101Z" fill="#2CBBC2"/>
<path d="M19.0348 177.018C24.1315 177.018 28.2633 172.661 28.2633 167.288C28.2633 161.914 24.1315 157.557 19.0348 157.557C13.9381 157.557 9.8064 161.914 9.8064 167.288C9.8064 172.661 13.9381 177.018 19.0348 177.018Z" fill="#2BBBC2"/>
<path d="M55.9449 177.018C61.0416 177.018 65.1733 172.661 65.1733 167.288C65.1733 161.914 61.0416 157.557 55.9449 157.557C50.8481 157.557 46.7164 161.914 46.7164 167.288C46.7164 172.661 50.8481 177.018 55.9449 177.018Z" fill="#CEEFF1"/>
<path d="M92.8549 177.018C97.9516 177.018 102.083 172.661 102.083 167.288C102.083 161.914 97.9516 157.557 92.8549 157.557C87.7582 157.557 83.6265 161.914 83.6265 167.288C83.6265 172.661 87.7582 177.018 92.8549 177.018Z" fill="#8E9095"/>
<path d="M129.765 177.018C134.862 177.018 138.993 172.661 138.993 167.288C138.993 161.914 134.862 157.557 129.765 157.557C124.668 157.557 120.536 161.914 120.536 167.288C120.536 172.661 124.668 177.018 129.765 177.018Z" fill="#3CC0C6"/>
<path d="M203.585 177.018C208.682 177.018 212.813 172.661 212.813 167.288C212.813 161.914 208.682 157.557 203.585 157.557C198.488 157.557 194.357 161.914 194.357 167.288C194.357 172.661 198.488 177.018 203.585 177.018Z" fill="#54C8CD"/>
<path d="M240.495 177.018C245.592 177.018 249.723 172.661 249.723 167.288C249.723 161.914 245.592 157.557 240.495 157.557C235.398 157.557 231.267 161.914 231.267 167.288C231.267 172.661 235.398 177.018 240.495 177.018Z" fill="#8AD9DD"/>
<path d="M277.405 177.018C282.502 177.018 286.633 172.661 286.633 167.288C286.633 161.914 282.502 157.557 277.405 157.557C272.308 157.557 268.177 161.914 268.177 167.288C268.177 172.661 272.308 177.018 277.405 177.018Z" fill="#7C7F84"/>
<path d="M314.315 177.018C319.412 177.018 323.543 172.661 323.543 167.288C323.543 161.914 319.412 157.557 314.315 157.557C309.218 157.557 305.087 161.914 305.087 167.288C305.087 172.661 309.218 177.018 314.315 177.018Z" fill="#C2C4C6"/>
<path d="M19.0348 215.934C24.1315 215.934 28.2633 211.578 28.2633 206.204C28.2633 200.83 24.1315 196.474 19.0348 196.474C13.9381 196.474 9.8064 200.83 9.8064 206.204C9.8064 211.578 13.9381 215.934 19.0348 215.934Z" fill="#C7C9CB"/>
<path d="M55.9449 215.934C61.0416 215.934 65.1733 211.578 65.1733 206.204C65.1733 200.83 61.0416 196.474 55.9449 196.474C50.8481 196.474 46.7164 200.83 46.7164 206.204C46.7164 211.578 50.8481 215.934 55.9449 215.934Z" fill="#27BAC0"/>
<path d="M92.8549 215.934C97.9516 215.934 102.083 211.578 102.083 206.204C102.083 200.83 97.9516 196.474 92.8549 196.474C87.7582 196.474 83.6265 200.83 83.6265 206.204C83.6265 211.578 87.7582 215.934 92.8549 215.934Z" fill="#F1F2F2"/>
<path d="M129.765 215.934C134.862 215.934 138.993 211.578 138.993 206.204C138.993 200.83 134.862 196.474 129.765 196.474C124.668 196.474 120.536 200.83 120.536 206.204C120.536 211.578 124.668 215.934 129.765 215.934Z" fill="#E2E2E4"/>
<path d="M166.675 215.934C171.772 215.934 175.903 211.578 175.903 206.204C175.903 200.83 171.772 196.474 166.675 196.474C161.578 196.474 157.447 200.83 157.447 206.204C157.447 211.578 161.578 215.934 166.675 215.934Z" fill="#D8D9DB"/>
<path d="M203.585 215.934C208.682 215.934 212.813 211.578 212.813 206.204C212.813 200.83 208.682 196.474 203.585 196.474C198.488 196.474 194.357 200.83 194.357 206.204C194.357 211.578 198.488 215.934 203.585 215.934Z" fill="#AAACAF"/>
<path d="M240.495 215.934C245.592 215.934 249.723 211.578 249.723 206.204C249.723 200.83 245.592 196.474 240.495 196.474C235.398 196.474 231.267 200.83 231.267 206.204C231.267 211.578 235.398 215.934 240.495 215.934Z" fill="#F9F9F9"/>
<path d="M277.405 215.934C282.502 215.934 286.633 211.578 286.633 206.204C286.633 200.83 282.502 196.474 277.405 196.474C272.308 196.474 268.177 200.83 268.177 206.204C268.177 211.578 272.308 215.934 277.405 215.934Z" fill="#84878C"/>
<path d="M314.315 215.934C319.412 215.934 323.543 211.578 323.543 206.204C323.543 200.83 319.412 196.474 314.315 196.474C309.218 196.474 305.087 200.83 305.087 206.204C305.087 211.578 309.218 215.934 314.315 215.934Z" fill="#999CA0"/>
<path d="M19.0348 254.85C24.1315 254.85 28.2633 250.494 28.2633 245.12C28.2633 239.746 24.1315 235.39 19.0348 235.39C13.9381 235.39 9.8064 239.746 9.8064 245.12C9.8064 250.494 13.9381 254.85 19.0348 254.85Z" fill="#8BDADD"/>
<path d="M55.9449 254.85C61.0416 254.85 65.1733 250.494 65.1733 245.12C65.1733 239.746 61.0416 235.39 55.9449 235.39C50.8481 235.39 46.7164 239.746 46.7164 245.12C46.7164 250.494 50.8481 254.85 55.9449 254.85Z" fill="#A6A8AC"/>
<path d="M92.8549 254.85C97.9516 254.85 102.083 250.494 102.083 245.12C102.083 239.746 97.9516 235.39 92.8549 235.39C87.7582 235.39 83.6265 239.746 83.6265 245.12C83.6265 250.494 87.7582 254.85 92.8549 254.85Z" fill="#85898D"/>
<path d="M129.765 254.85C134.862 254.85 138.993 250.494 138.993 245.12C138.993 239.746 134.862 235.39 129.765 235.39C124.668 235.39 120.536 239.746 120.536 245.12C120.536 250.494 124.668 254.85 129.765 254.85Z" fill="#BAE9EB"/>
<path d="M166.675 254.85C171.772 254.85 175.903 250.494 175.903 245.12C175.903 239.746 171.772 235.39 166.675 235.39C161.578 235.39 157.447 239.746 157.447 245.12C157.447 250.494 161.578 254.85 166.675 254.85Z" fill="#C3ECED"/>
<path d="M203.585 254.85C208.682 254.85 212.813 250.494 212.813 245.12C212.813 239.746 208.682 235.39 203.585 235.39C198.488 235.39 194.357 239.746 194.357 245.12C194.357 250.494 198.488 254.85 203.585 254.85Z" fill="#6F7379"/>
<path d="M240.495 254.85C245.592 254.85 249.723 250.494 249.723 245.12C249.723 239.746 245.592 235.39 240.495 235.39C235.398 235.39 231.267 239.746 231.267 245.12C231.267 250.494 235.398 254.85 240.495 254.85Z" fill="#BEBFC2"/>
<path d="M277.405 254.85C282.502 254.85 286.633 250.494 286.633 245.12C286.633 239.746 282.502 235.39 277.405 235.39C272.308 235.39 268.177 239.746 268.177 245.12C268.177 250.494 272.308 254.85 277.405 254.85Z" fill="#494D55"/>
<path d="M314.315 254.85C319.412 254.85 323.543 250.494 323.543 245.12C323.543 239.746 319.412 235.39 314.315 235.39C309.218 235.39 305.087 239.746 305.087 245.12C305.087 250.494 309.218 254.85 314.315 254.85Z" fill="#676B71"/>
<path d="M19.0348 293.766C24.1315 293.766 28.2633 289.41 28.2633 284.036C28.2633 278.663 24.1315 274.306 19.0348 274.306C13.9381 274.306 9.8064 278.663 9.8064 284.036C9.8064 289.41 13.9381 293.766 19.0348 293.766Z" fill="#C3C5C7"/>
<path d="M55.9449 293.766C61.0416 293.766 65.1733 289.41 65.1733 284.036C65.1733 278.663 61.0416 274.306 55.9449 274.306C50.8481 274.306 46.7164 278.663 46.7164 284.036C46.7164 289.41 50.8481 293.766 55.9449 293.766Z" fill="#E7E8E9"/>
<path d="M92.8549 293.766C97.9516 293.766 102.083 289.41 102.083 284.036C102.083 278.663 97.9516 274.306 92.8549 274.306C87.7582 274.306 83.6265 278.663 83.6265 284.036C83.6265 289.41 87.7582 293.766 92.8549 293.766Z" fill="#32BDC4"/>
<path d="M129.765 293.766C134.862 293.766 138.993 289.41 138.993 284.036C138.993 278.663 134.862 274.306 129.765 274.306C124.668 274.306 120.536 278.663 120.536 284.036C120.536 289.41 124.668 293.766 129.765 293.766Z" fill="#D4F1F3"/>
<path d="M166.675 293.766C171.772 293.766 175.903 289.41 175.903 284.036C175.903 278.663 171.772 274.306 166.675 274.306C161.578 274.306 157.447 278.663 157.447 284.036C157.447 289.41 161.578 293.766 166.675 293.766Z" fill="#DCF4F5"/>
<path d="M203.585 293.766C208.682 293.766 212.813 289.41 212.813 284.036C212.813 278.663 208.682 274.306 203.585 274.306C198.488 274.306 194.357 278.663 194.357 284.036C194.357 289.41 198.488 293.766 203.585 293.766Z" fill="#26B9C0"/>
<path d="M240.495 293.766C245.592 293.766 249.723 289.41 249.723 284.036C249.723 278.663 245.592 274.306 240.495 274.306C235.398 274.306 231.267 278.663 231.267 284.036C231.267 289.41 235.398 293.766 240.495 293.766Z" fill="#7E8186"/>
<path d="M277.405 293.766C282.502 293.766 286.633 289.41 286.633 284.036C286.633 278.663 282.502 274.306 277.405 274.306C272.308 274.306 268.177 278.663 268.177 284.036C268.177 289.41 272.308 293.766 277.405 293.766Z" fill="#7BD5D9"/>
<path d="M314.315 293.766C319.412 293.766 323.543 289.41 323.543 284.036C323.543 278.663 319.412 274.306 314.315 274.306C309.218 274.306 305.087 278.663 305.087 284.036C305.087 289.41 309.218 293.766 314.315 293.766Z" fill="#F3F3F4"/>
<path d="M19.0348 332.683C24.1315 332.683 28.2633 328.326 28.2633 322.953C28.2633 317.579 24.1315 313.223 19.0348 313.223C13.9381 313.223 9.8064 317.579 9.8064 322.953C9.8064 328.326 13.9381 332.683 19.0348 332.683Z" fill="#C9EEEF"/>
<path d="M55.9449 332.683C61.0416 332.683 65.1733 328.326 65.1733 322.953C65.1733 317.579 61.0416 313.223 55.9449 313.223C50.8481 313.223 46.7164 317.579 46.7164 322.953C46.7164 328.326 50.8481 332.683 55.9449 332.683Z" fill="#898C90"/>
<path d="M92.8549 332.683C97.9516 332.683 102.083 328.326 102.083 322.953C102.083 317.579 97.9516 313.223 92.8549 313.223C87.7582 313.223 83.6265 317.579 83.6265 322.953C83.6265 328.326 87.7582 332.683 92.8549 332.683Z" fill="#64686F"/>
<path d="M129.765 332.683C134.862 332.683 138.993 328.326 138.993 322.953C138.993 317.579 134.862 313.223 129.765 313.223C124.668 313.223 120.536 317.579 120.536 322.953C120.536 328.326 124.668 332.683 129.765 332.683Z" fill="#D3F1F2"/>
<path d="M166.675 332.683C171.772 332.683 175.903 328.326 175.903 322.953C175.903 317.579 171.772 313.223 166.675 313.223C161.578 313.223 157.447 317.579 157.447 322.953C157.447 328.326 161.578 332.683 166.675 332.683Z" fill="#18B5BC"/>
<path d="M203.585 332.683C208.682 332.683 212.813 328.326 212.813 322.953C212.813 317.579 208.682 313.223 203.585 313.223C198.488 313.223 194.357 317.579 194.357 322.953C194.357 328.326 198.488 332.683 203.585 332.683Z" fill="#484C54"/>
<path d="M240.495 332.683C245.592 332.683 249.723 328.326 249.723 322.953C249.723 317.579 245.592 313.223 240.495 313.223C235.398 313.223 231.267 317.579 231.267 322.953C231.267 328.326 235.398 332.683 240.495 332.683Z" fill="#3ABFC6"/>
<path d="M277.405 332.683C282.502 332.683 286.633 328.326 286.633 322.953C286.633 317.579 282.502 313.223 277.405 313.223C272.308 313.223 268.177 317.579 268.177 322.953C268.177 328.326 272.308 332.683 277.405 332.683Z" fill="#A2A4A8"/>
<path d="M314.315 332.683C319.412 332.683 323.543 328.326 323.543 322.953C323.543 317.579 319.412 313.223 314.315 313.223C309.218 313.223 305.087 317.579 305.087 322.953C305.087 328.326 309.218 332.683 314.315 332.683Z" fill="#20B7BE"/>
</g>
<g clip-path="url(#clip0)">
<path d="M477.495 0.259888H42.0334V293.322H477.495V0.259888Z" fill="#E6E6E6"/>
<path d="M465.043 37.0167H54.485V275.984H465.043V37.0167Z" fill="white"/>
<path d="M477.309 0H41.8472V19.4402H477.309V0Z" fill="#00ADB5"/>
<path d="M55.5948 13.5419C57.4885 13.5419 59.0237 11.9287 59.0237 9.93878C59.0237 7.94885 57.4885 6.33569 55.5948 6.33569C53.7012 6.33569 52.166 7.94885 52.166 9.93878C52.166 11.9287 53.7012 13.5419 55.5948 13.5419Z" fill="white"/>
<path d="M68.6099 13.5419C70.5036 13.5419 72.0387 11.9287 72.0387 9.93878C72.0387 7.94885 70.5036 6.33569 68.6099 6.33569C66.7162 6.33569 65.181 7.94885 65.181 9.93878C65.181 11.9287 66.7162 13.5419 68.6099 13.5419Z" fill="white"/>
<path d="M81.6249 13.5419C83.5186 13.5419 85.0537 11.9287 85.0537 9.93878C85.0537 7.94885 83.5186 6.33569 81.6249 6.33569C79.7312 6.33569 78.196 7.94885 78.196 9.93878C78.196 11.9287 79.7312 13.5419 81.6249 13.5419Z" fill="white"/>
<path d="M197.284 61.8114H91.7898V251.189H197.284V61.8114Z" fill="#E6E6E6"/>
<path d="M303.406 61.8114H215.494V113.94H303.406V61.8114Z" fill="#00ADB5"/>
<path d="M303.406 128.457H215.494V184.544H303.406V128.457Z" fill="#E6E6E6"/>
<path d="M303.406 199.061H215.494V251.189H303.406V199.061Z" fill="#E6E6E6"/>
<path d="M427.738 61.8114H322.244V144.341H427.738V61.8114Z" fill="#E6E6E6"/>
<path d="M427.738 168.659H322.244V251.189H427.738V168.659Z" fill="#00ADB5"/>
<path d="M540.057 146.886C533.098 134.424 519.331 133.843 519.331 133.843C519.331 133.843 505.915 132.025 497.31 151.005C489.288 168.697 478.218 185.778 495.527 189.92L498.654 179.605L500.59 190.688C503.055 190.876 505.527 190.92 507.996 190.822C526.534 190.187 544.187 191.007 543.619 183.957C542.863 174.584 546.752 158.878 540.057 146.886Z" fill="#2F2E41"/>
<path d="M474.067 213.427L467.98 229.773L437.545 259.622C437.545 259.622 419.285 273.836 427.4 278.1C435.516 282.365 442.956 262.465 442.956 262.465L475.42 241.855L482.183 218.402L474.067 213.427Z" fill="#FFB8B8"/>
<path d="M484.212 394.655L490.299 411.001H499.091L491.652 391.812L484.212 394.655Z" fill="#FFB8B8"/>
<path d="M510.589 401.762L516.676 418.108H525.468L518.028 398.919L510.589 401.762Z" fill="#FFB8B8"/>
<path d="M509.913 404.605L521.41 401.762L506.531 338.51L511.471 289.841L511.603 289.827C511.603 289.827 520.057 255.358 513.294 246.119C506.531 236.88 472.714 240.433 472.714 240.433C472.714 240.433 459.864 253.937 460.541 284.497C461.217 315.057 460.541 341.353 465.275 353.434C470.009 365.516 483.536 397.498 483.536 397.498L494.357 396.076L482.859 343.485L481.021 297.767C482.484 316.088 485.429 350.827 486.917 353.434C488.946 356.988 509.913 404.605 509.913 404.605Z" fill="#2F2E41"/>
<path d="M544.405 228.351L549.14 246.119L570.106 285.918C570.106 285.918 588.367 302.975 580.927 305.107C573.487 307.239 561.99 289.472 561.99 289.472L538.318 254.647L532.231 229.062L544.405 228.351Z" fill="#FFB8B8"/>
<path d="M520.058 177.892C529.396 177.892 536.966 169.937 536.966 160.124C536.966 150.312 529.396 142.357 520.058 142.357C510.719 142.357 503.149 150.312 503.149 160.124C503.149 169.937 510.719 177.892 520.058 177.892Z" fill="#FFB8B8"/>
<path d="M511.265 169.364L507.207 182.867L500.444 198.502L525.468 187.842C525.468 187.842 524.115 176.471 525.468 173.628L511.265 169.364Z" fill="#FFB8B8"/>
<path d="M540.347 197.791L524.792 184.288L507.207 192.106L507.896 180.574L489.134 186.871L486.241 187.842L482.183 209.873C482.183 209.873 479.478 212.005 476.772 224.087C475.211 231.187 472.944 238.095 470.009 244.698C470.009 244.698 499.091 232.616 513.294 248.962C513.294 248.962 515.323 247.54 514.647 245.408C513.97 243.276 520.734 232.616 520.734 232.616C520.734 232.616 520.734 234.748 523.439 230.484C526.144 226.219 528.173 225.509 528.173 225.509L540.347 197.791Z" fill="#00ADB5"/>
<path d="M490.299 189.974L487.345 187.471C487.345 187.471 484.888 186.42 482.859 189.974C480.83 193.527 470.686 215.559 470.686 215.559L482.859 221.955L490.299 189.974Z" fill="#00ADB5"/>
<path d="M530.879 197.081L540.347 197.792C540.347 197.792 545.758 200.634 545.758 204.898C545.758 209.163 547.111 231.905 547.111 231.905L532.231 236.88L526.144 216.98L530.879 197.081Z" fill="#00ADB5"/>
<path d="M488.345 408.513L476.847 413.488C476.847 413.488 463.321 414.199 465.349 421.306C467.378 428.413 487.668 423.438 487.668 423.438C487.668 423.438 505.929 424.149 505.929 419.174C505.929 414.199 503.224 408.513 500.519 408.513H488.345Z" fill="#2F2E41"/>
<path d="M514.045 414.91L502.547 419.885C502.547 419.885 489.021 420.595 491.05 427.702C493.079 434.809 513.369 429.834 513.369 429.834C513.369 429.834 531.63 430.545 531.63 425.57C531.63 420.595 528.924 414.91 526.219 414.91H514.045Z" fill="#2F2E41"/>
<path d="M536.98 145.685L523.379 138.133L504.596 141.223L500.71 159.415L510.384 159.021L513.086 152.337V158.911L517.55 158.729L520.14 148.088L521.76 159.415L537.628 159.071L536.98 145.685Z" fill="#2F2E41"/>
<path d="M446.007 59.3762C432.478 47.3799 415.922 39.7743 398.355 37.4851C380.787 35.1959 362.965 38.3216 347.057 46.482C331.149 54.6425 317.841 67.4857 308.752 83.4488C299.664 99.412 295.187 117.807 295.866 136.395C296.545 154.983 302.351 172.963 312.577 188.147C322.804 203.331 337.01 215.065 353.466 221.919C369.923 228.774 387.92 230.455 405.269 226.757C422.618 223.059 438.57 214.142 451.185 201.091L563.197 300.41C564.041 301.159 565.018 301.726 566.071 302.078C567.124 302.431 568.233 302.562 569.334 302.464C570.436 302.366 571.508 302.041 572.489 301.507C573.471 300.974 574.343 300.243 575.056 299.355C575.769 298.468 576.308 297.441 576.643 296.335C576.978 295.228 577.103 294.063 577.009 292.906C576.916 291.748 576.607 290.622 576.099 289.59C575.591 288.559 574.895 287.642 574.05 286.894L462.038 187.575C475.05 167.951 480.62 143.927 477.654 120.213C474.689 96.4982 463.403 74.8021 446.007 59.3762ZM438.786 178.011C430.06 188.879 418.463 196.783 405.462 200.724C392.461 204.665 378.639 204.467 365.746 200.154C352.852 195.841 341.465 187.607 333.024 176.494C324.583 165.38 319.469 151.886 318.326 137.718C317.184 123.549 320.066 109.343 326.607 96.8959C333.148 84.4486 343.054 74.319 355.074 67.7881C367.094 61.2571 380.686 58.6182 394.133 60.2051C407.58 61.7919 420.277 67.5332 430.619 76.7029C444.486 88.9991 453.138 106.581 454.67 125.58C456.201 144.579 450.488 163.439 438.786 178.011Z" fill="#3F3D56"/>
<path opacity="0.3" d="M342.377 186.594C329.252 174.956 320.773 158.556 318.622 140.652C316.471 122.747 320.807 104.648 330.768 89.9473C329.46 91.3316 328.195 92.7814 326.974 94.2967C321.179 101.512 316.794 109.856 314.068 118.853C311.342 127.849 310.329 137.322 311.087 146.73C311.846 156.138 314.36 165.296 318.486 173.683C322.613 182.07 328.272 189.52 335.138 195.609C342.005 201.698 349.946 206.306 358.508 209.169C367.07 212.033 376.084 213.097 385.037 212.299C393.99 211.502 402.706 208.859 410.686 204.522C418.667 200.185 425.757 194.239 431.551 187.022C432.769 185.505 433.916 183.951 434.993 182.361C422.878 195.152 406.629 202.688 389.471 203.472C372.314 204.256 355.503 198.232 342.377 186.594Z" fill="black"/>
</g>
<defs>
<clipPath id="clip0">
<rect width="540.862" height="431.527" fill="white" transform="translate(41.8472)"/>
</clipPath>
</defs>
</svg>
